<svg xmlns="http://www.w3.org/2000/svg" viewBox="0 0 850.21 559.06"><defs><style>.cls-1{fill:#947c55;}.cls-2{fill:#89714e;}</style></defs><title>logo</title><g id="Layer_2" data-name="Layer 2"><g id="Layer_2-2" data-name="Layer 2"><path class="cls-1" d="M752.83,455.94c-109.22,5.11-218.38,9.14-327.55,9-109.17.13-218.34-3.9-327.55-9a10.26,10.26,0,0,0-9.68,15q14.1,28.89,28.18,59.71a12.82,12.82,0,0,0,9.65,7.44A2151.19,2151.19,0,0,0,726,538a12.85,12.85,0,0,0,9.74-7.63q13.44-30.65,26.91-59.53A10.26,10.26,0,0,0,752.83,455.94Z" transform="translate(0)"/><path class="cls-1" d="M447.79,384.69c-99,0-99-1.27-216,0-71.89.77-133.2,6-172.46,9q3,11.79,6,23.6,1.88,7.41,3.77,14.81a10.87,10.87,0,0,0,10.11,8.09q346.13,14.94,691.88,0a10.89,10.89,0,0,0,10.12-8.09q6-23.57,11.93-47.15,1.18-4.69,2.36-9.41C794.68,378.68,528.79,384.69,447.79,384.69Z" transform="translate(0)"/><path class="cls-1" d="M838.83,221.05a7255.89,7255.89,0,0,1-827.46,0A10.73,10.73,0,0,0,.14,233.45q7.52,44.94,15.27,89.87l2.52,14.58a10.92,10.92,0,0,0,10.38,8.92q397,17,793.58,0a10.93,10.93,0,0,0,10.39-8.92Q835,322.42,837.62,307q6.3-36.75,12.44-73.5A10.72,10.72,0,0,0,838.83,221.05Z" transform="translate(0)"/><path class="cls-1" d="M48.27,124.37c252.46-14.41,501.38-15.17,753.67,0a10.22,10.22,0,0,0,10.23-13.85q-4.84-13.39-9.7-26.68Q788.3,45,774.08,6.94A10.86,10.86,0,0,0,763.85,0c-226,.13-451.47.13-677.5,0A10.83,10.83,0,0,0,76.13,6.94Q61.91,45,47.74,83.84,42.88,97.13,38,110.52A10.22,10.22,0,0,0,48.27,124.37Z" transform="translate(0)"/><path class="cls-1" d="M130.6,159.69v40.94a11.4,11.4,0,0,0,10.67,11.24c188.93,8.62,378.74,8.62,567.67,0a11.39,11.39,0,0,0,10.66-11.24V159.69q-68.61-3.24-137.28-5,0-7,0-14c0,.12,0,.23,0,.35v31.17c0,6.68-4.78,12.14-10.68,12.18q-62.54.36-125.12.39c-5.9,0-10.69-5.63-10.69-12.59V152.75H414.41V172.2c0,7-4.78,12.6-10.69,12.59q-62.57,0-125.12-.39c-5.89,0-10.68-5.5-10.68-12.18V141.05c0-.12,0-.23,0-.35q0,7,0,14Q199.24,156.45,130.6,159.69Z" transform="translate(0)"/><path class="cls-2" d="M257.24,128.9c-38.69.91-77.35,2.26-116,4.55a11.5,11.5,0,0,0-10.67,11.34v14.9q68.63-3.24,137.29-5,0-7,0-14v-1.77A10.2,10.2,0,0,0,257.24,128.9Z" transform="translate(0)"/><path class="cls-2" d="M435.8,152.75q0-11.2,0-22.42a3.25,3.25,0,0,0-3.36-3.12H417.77a3.25,3.25,0,0,0-3.36,3.12v22.42H435.8Z" transform="translate(0)"/><path class="cls-2" d="M719.6,159.69v-14.9A11.47,11.47,0,0,0,709,133.45c-38.63-2.29-77.29-3.64-116-4.55a10.2,10.2,0,0,0-10.68,10v1.77q0,7,0,14Q651,156.45,719.6,159.69Z" transform="translate(0)"/><path class="cls-2" d="M784.45,362.31q-359.54,16.29-718.69,0a10.73,10.73,0,0,0-11,13.24q1.53,6.1,3.07,12.2l1.5,5.94h0c39.26-3,100.57-8.23,172.46-9,117-1.27,117,0,216,0,81,0,346.89-6,347.67-9.15a10.42,10.42,0,0,0-.24-6A10.82,10.82,0,0,0,784.45,362.31Z" transform="translate(0)"/></g></g></svg>
